<svg width="602" height="120" viewBox="0 0 602 120" fill="none" xmlns="http://www.w3.org/2000/svg">
<path fill-rule="evenodd" clip-rule="evenodd" d="M0 119.807H602V9.06461C592.263 17.7744 581.948 25.6703 571.025 32.7396C480.991 91.0081 349.944 92.9036 160.94 32.2632C97.1096 11.7837 44.0075 6.01778 0 10.6122V119.807ZM0 8.60134C44.3026 4.01151 97.6232 9.84813 161.551 30.3589C350.396 90.9482 480.683 88.8246 569.938 31.0605C581.27 23.7271 591.945 15.4933 602 6.37181V1.44428e-05C512.367 80.48 373.685 91.3738 161.554 23.3133C97.5262 2.77047 44.2157 -3.01007 0 1.64129V8.60134Z" fill="#FF8A00"/>
</svg>
