<svg width="26" height="16" viewBox="0 0 26 16" fill="none" xmlns="http://www.w3.org/2000/svg">
<path d="M25.0579 12.7897C24.9649 12.641 24.8021 12.55 24.6272 12.55H1.37167C1.19674 12.55 1.03398 12.641 0.941937 12.7897C0.849941 12.9383 0.840841 13.1243 0.919708 13.2811C1.62951 14.7016 3.05617 15.5834 4.6436 15.5834H21.3552C22.9417 15.5834 24.3683 14.7016 25.0802 13.282C25.157 13.1243 25.15 12.9393 25.0579 12.7897Z" fill="#6A6A6A"/>
<path d="M14.3859 2.54405C14.4688 2.35698 14.5163 2.15071 14.5163 1.93335C14.5163 1.09715 13.8358 0.416687 12.9996 0.416687C12.1634 0.416687 11.483 1.09715 11.483 1.93335C11.483 2.15076 11.5305 2.35702 11.6134 2.54405C7.03207 3.17399 3.4143 6.86252 2.9502 11.5389H23.0481C22.584 6.86456 18.9652 3.17399 14.3859 2.54405ZM12.5274 5.47122C9.69936 5.65829 7.2636 7.50454 6.32426 10.1749C6.25146 10.3822 6.05529 10.5126 5.84703 10.5126C5.79143 10.5126 5.7348 10.5035 5.6792 10.4843C5.4163 10.3913 5.2778 10.1031 5.3698 9.83922C6.4436 6.78564 9.2272 4.67549 12.4607 4.46211C12.7287 4.44491 12.9794 4.65421 12.9986 4.93327C13.0168 5.21239 12.8065 5.45302 12.5274 5.47122Z" fill="#6A6A6A"/>
</svg>
