<svg width="22" height="22" viewBox="0 0 22 22" fill="none" xmlns="http://www.w3.org/2000/svg">
<path d="M21.8262 7.30518V19.2819C21.8256 19.9198 21.5719 20.5314 21.1208 20.9824C20.6698 21.4335 20.0582 21.6872 19.4203 21.6878H15.4104C14.985 21.6878 14.577 21.5188 14.2762 21.218C13.9754 20.9172 13.8064 20.5093 13.8064 20.0839V15.673C13.8064 15.4603 13.722 15.2563 13.5716 15.1059C13.4212 14.9555 13.2172 14.871 13.0045 14.871H8.99459C8.78189 14.871 8.57791 14.9555 8.42751 15.1059C8.27711 15.2563 8.19261 15.4603 8.19261 15.673V20.0839C8.19261 20.5093 8.02363 20.9172 7.72283 21.218C7.42203 21.5188 7.01406 21.6878 6.58866 21.6878H2.57878C1.94088 21.6872 1.3293 21.4335 0.878235 20.9824C0.427174 20.5314 0.173489 19.9198 0.172852 19.2819V7.30518C0.173452 7.02821 0.245424 6.75607 0.381826 6.51502C0.518227 6.27396 0.714453 6.07213 0.95157 5.92899L10.1743 0.395356C10.4236 0.245708 10.7089 0.166656 10.9997 0.166656C11.2905 0.166656 11.5758 0.245708 11.8252 0.395356L21.0479 5.92899C21.2849 6.07218 21.4811 6.27403 21.6174 6.51508C21.7537 6.75614 21.8256 7.02825 21.8262 7.30518Z" fill="white"/>
</svg>
