<svg width="19" height="18" viewBox="0 0 19 18" fill="none" xmlns="http://www.w3.org/2000/svg">
<path d="M11.0696 9.00004C11.0696 9.95146 10.2983 10.7227 9.34693 10.7227C8.39551 10.7227 7.62427 9.95146 7.62427 9.00004C7.62427 8.04862 8.39551 7.27737 9.34693 7.27737C10.2983 7.27737 11.0696 8.04862 11.0696 9.00004Z" fill="white"/>
<path d="M13.3757 5.95214C13.2929 5.72774 13.1608 5.52463 12.9891 5.35791C12.8224 5.18625 12.6194 5.05414 12.3949 4.97133C12.2128 4.9006 11.9392 4.81642 11.4354 4.79349C10.8903 4.76863 10.7269 4.76328 9.347 4.76328C7.96697 4.76328 7.80355 4.76849 7.25863 4.79335C6.75477 4.81642 6.48107 4.9006 6.29911 4.97133C6.07457 5.05414 5.87146 5.18625 5.70488 5.35791C5.53322 5.52463 5.40111 5.7276 5.31816 5.95214C5.24744 6.13424 5.16325 6.40793 5.14032 6.9118C5.11546 7.45672 5.11011 7.62014 5.11011 9.00017C5.11011 10.3801 5.11546 10.5435 5.14032 11.0885C5.16325 11.5924 5.24744 11.866 5.31816 12.0481C5.40111 12.2726 5.53308 12.4756 5.70474 12.6423C5.87146 12.8139 6.07444 12.9461 6.29897 13.0289C6.48107 13.0997 6.75477 13.1839 7.25863 13.2068C7.80355 13.2317 7.96684 13.2369 9.34686 13.2369C10.727 13.2369 10.8904 13.2317 11.4352 13.2068C11.9391 13.1839 12.2128 13.0997 12.3949 13.0289C12.8456 12.855 13.2018 12.4988 13.3757 12.0481C13.4464 11.866 13.5306 11.5924 13.5537 11.0885C13.5785 10.5435 13.5838 10.3801 13.5838 9.00017C13.5838 7.62014 13.5785 7.45672 13.5537 6.9118C13.5307 6.40793 13.4466 6.13424 13.3757 5.95214ZM9.347 11.6538C7.88128 11.6538 6.69311 10.4657 6.69311 9.00003C6.69311 7.53431 7.88128 6.34627 9.347 6.34627C10.8126 6.34627 12.0008 7.53431 12.0008 9.00003C12.0008 10.4657 10.8126 11.6538 9.347 11.6538ZM12.1057 6.86153C11.7632 6.86153 11.4855 6.58385 11.4855 6.24135C11.4855 5.89885 11.7632 5.62117 12.1057 5.62117C12.4482 5.62117 12.7259 5.89885 12.7259 6.24135C12.7257 6.58385 12.4482 6.86153 12.1057 6.86153Z" fill="white"/>
<path d="M9.34695 0C4.37713 0 0.346924 4.03021 0.346924 9.00003C0.346924 13.9698 4.37713 18.0001 9.34695 18.0001C14.3168 18.0001 18.347 13.9698 18.347 9.00003C18.347 4.03021 14.3168 0 9.34695 0ZM14.4838 11.1307C14.4588 11.6808 14.3713 12.0564 14.2436 12.3852C13.9751 13.0794 13.4263 13.6282 12.7321 13.8967C12.4035 14.0244 12.0278 14.1117 11.4778 14.1368C10.9267 14.162 10.7506 14.168 9.34709 14.168C7.94344 14.168 7.76753 14.162 7.21628 14.1368C6.66628 14.1117 6.29055 14.0244 5.96192 13.8967C5.61694 13.7669 5.30466 13.5635 5.04648 13.3005C4.78363 13.0425 4.58024 12.73 4.45047 12.3852C4.32275 12.0566 4.23527 11.6808 4.21028 11.1308C4.18487 10.5796 4.17897 10.4035 4.17897 9.00003C4.17897 7.59652 4.18487 7.42046 4.21014 6.86936C4.23514 6.31922 4.32248 5.94362 4.45019 5.61486C4.57997 5.27002 4.78349 4.9576 5.04648 4.69955C5.30452 4.43657 5.61694 4.23318 5.96178 4.10341C6.29055 3.97569 6.66614 3.88835 7.21628 3.86322C7.76739 3.83809 7.94344 3.83204 9.34695 3.83204C10.7505 3.83204 10.9265 3.83809 11.4776 3.86335C12.0278 3.88835 12.4034 3.97569 12.7321 4.10327C13.077 4.23305 13.3894 4.43657 13.6476 4.69955C13.9104 4.95773 14.1139 5.27002 14.2436 5.61486C14.3714 5.94362 14.4588 6.31922 14.4839 6.86936C14.509 7.42046 14.5149 7.59652 14.5149 9.00003C14.5149 10.4035 14.509 10.5796 14.4838 11.1307Z" fill="white"/>
</svg>
