<svg width="24" height="18" viewBox="0 0 24 18" fill="none" xmlns="http://www.w3.org/2000/svg">
<path d="M1.851 3.14243H22.1492C22.9237 3.14243 23.5535 2.51259 23.5535 1.73806C23.5535 0.963522 22.9237 0.333344 22.1492 0.333344H1.851C1.07647 0.333344 0.446289 0.963522 0.446289 1.73806C0.446289 2.51259 1.07647 3.14243 1.851 3.14243Z" fill="#6A6A6A"/>
<path d="M22.1492 7.58255H1.851C1.07647 7.58255 0.446289 8.21273 0.446289 8.98726C0.446289 9.7618 1.07647 10.3916 1.851 10.3916H22.1492C22.9237 10.3916 23.5535 9.7618 23.5535 8.98726C23.5535 8.21273 22.9237 7.58255 22.1492 7.58255Z" fill="#6A6A6A"/>
<path d="M22.1492 14.8318H1.851C1.07647 14.8318 0.446289 15.4623 0.446289 16.2368C0.446289 17.0114 1.07647 17.6412 1.851 17.6412H22.1492C22.9237 17.6412 23.5535 17.0114 23.5535 16.2368C23.5535 15.4623 22.9237 14.8318 22.1492 14.8318Z" fill="#6A6A6A"/>
</svg>
