<svg width="21" height="22" viewBox="0 0 21 22" fill="none" xmlns="http://www.w3.org/2000/svg">
<path d="M19.6829 11.1067C19.5971 10.9311 19.5971 10.7298 19.6829 10.5542L20.4783 8.92699C20.9212 8.02096 20.5703 6.94105 19.6795 6.46839L18.0795 5.61947C17.9069 5.52791 17.7885 5.36495 17.7548 5.17255L17.4419 3.38851C17.2676 2.39521 16.3488 1.72773 15.3504 1.86898L13.5571 2.12266C13.3635 2.14998 13.1721 2.08775 13.0317 1.95191L11.7299 0.692602C11.0051 -0.00861746 9.86957 -0.00865909 9.14477 0.692602L7.84297 1.95204C7.70251 2.08792 7.51111 2.15003 7.31758 2.12278L5.52421 1.8691C4.52553 1.72777 3.60704 2.39533 3.4328 3.38863L3.11988 5.17259C3.0861 5.36504 2.96776 5.52795 2.79518 5.61955L1.19522 6.46848C0.304384 6.94109 -0.0465175 8.02108 0.396358 8.92712L1.19176 10.5543C1.27757 10.7299 1.27757 10.9313 1.19176 11.1068L0.396316 12.734C-0.0465592 13.64 0.304342 14.7199 1.19517 15.1926L2.79514 16.0415C2.96776 16.1331 3.0861 16.296 3.11988 16.4884L3.4328 18.2725C3.59142 19.1767 4.36678 19.8109 5.25791 19.8108C5.34567 19.8108 5.43473 19.8046 5.52425 19.792L7.31762 19.5383C7.51102 19.5108 7.70255 19.5732 7.84301 19.709L9.14477 20.9684C9.50725 21.319 9.97221 21.4943 10.4373 21.4942C10.9023 21.4942 11.3676 21.3189 11.7299 20.9684L13.0317 19.709C13.1721 19.5732 13.3636 19.5111 13.5571 19.5383L15.3504 19.792C16.3492 19.9333 17.2676 19.2657 17.4419 18.2724L17.7548 16.4885C17.7886 16.296 17.9069 16.1331 18.0795 16.0415L19.6795 15.1926C20.5703 14.72 20.9212 13.64 20.4783 12.734L19.6829 11.1067ZM7.97714 5.29514C9.22062 5.29514 10.2323 6.30681 10.2323 7.5503C10.2323 8.79378 9.22062 9.80545 7.97714 9.80545C6.73366 9.80545 5.72198 8.79378 5.72198 7.5503C5.72198 6.30681 6.73366 5.29514 7.97714 5.29514ZM6.81314 15.3244C6.69304 15.4445 6.53563 15.5046 6.37826 15.5046C6.22089 15.5046 6.06343 15.4445 5.94338 15.3244C5.7032 15.0842 5.7032 14.6948 5.94338 14.4546L14.0615 6.33651C14.3016 6.09633 14.6911 6.09633 14.9313 6.33651C15.1714 6.5767 15.1714 6.96613 14.9313 7.20631L6.81314 15.3244ZM12.8974 16.3659C11.6539 16.3659 10.6423 15.3542 10.6423 14.1107C10.6423 12.8672 11.6539 11.8555 12.8974 11.8555C14.1409 11.8555 15.1526 12.8672 15.1526 14.1107C15.1526 15.3542 14.1409 16.3659 12.8974 16.3659Z" fill="#6A6A6A"/>
</svg>
