<svg width="17" height="22" viewBox="0 0 17 22" fill="none" xmlns="http://www.w3.org/2000/svg">
<path d="M11.6559 1.52082H10.1853C9.90634 0.732698 9.15342 0.166656 8.27051 0.166656C7.38759 0.166656 6.63467 0.732698 6.35436 1.52082H4.88509C4.51134 1.52082 4.20801 1.82416 4.20801 2.19791V4.90624C4.20801 5.27999 4.51134 5.58332 4.88509 5.58332H11.6559C12.0297 5.58332 12.333 5.27999 12.333 4.90624V2.19791C12.333 1.82416 12.0297 1.52082 11.6559 1.52082Z" fill="#6A6A6A"/>
<path d="M15.0413 2.87498H13.6872V4.90623C13.6872 6.02613 12.7758 6.93748 11.6559 6.93748H4.88509C3.7652 6.93748 2.85384 6.02613 2.85384 4.90623V2.87498H1.49967C0.753529 2.87498 0.145508 3.48301 0.145508 4.22915V20.4792C0.145508 21.2388 0.739987 21.8333 1.49967 21.8333H15.0413C15.801 21.8333 16.3955 21.2388 16.3955 20.4792V4.22915C16.3955 3.46946 15.801 2.87498 15.0413 2.87498ZM8.0728 14.8648L5.36447 17.5731C5.23176 17.7045 5.05842 17.7708 4.88509 17.7708C4.71176 17.7708 4.53842 17.7045 4.40572 17.5731L3.05155 16.2189C2.78749 15.9549 2.78749 15.5256 3.05155 15.2615C3.31561 14.9975 3.74488 14.9975 4.00895 15.2615L4.88509 16.1363L7.11405 13.9074C7.37811 13.6433 7.80738 13.6433 8.07145 13.9074C8.33551 14.1714 8.33686 14.5994 8.0728 14.8648ZM8.0728 9.44811L5.36447 12.1564C5.23176 12.2878 5.05842 12.3542 4.88509 12.3542C4.71176 12.3542 4.53842 12.2878 4.40572 12.1564L3.05155 10.8023C2.78749 10.5382 2.78749 10.1089 3.05155 9.84488C3.31561 9.58082 3.74488 9.58082 4.00895 9.84488L4.88509 10.7197L7.11405 8.49071C7.37811 8.22665 7.80738 8.22665 8.07145 8.49071C8.33551 8.75478 8.33686 9.18269 8.0728 9.44811ZM13.0101 16.4167H10.3018C9.92801 16.4167 9.62467 16.1133 9.62467 15.7396C9.62467 15.3658 9.92801 15.0625 10.3018 15.0625H13.0101C13.3838 15.0625 13.6872 15.3658 13.6872 15.7396C13.6872 16.1133 13.3838 16.4167 13.0101 16.4167ZM13.0101 11H10.3018C9.92801 11 9.62467 10.6967 9.62467 10.3229C9.62467 9.94915 9.92801 9.64582 10.3018 9.64582H13.0101C13.3838 9.64582 13.6872 9.94915 13.6872 10.3229C13.6872 10.6967 13.3838 11 13.0101 11Z" fill="#6A6A6A"/>
</svg>
