<svg width="15" height="22" viewBox="0 0 15 22" fill="none" xmlns="http://www.w3.org/2000/svg">
<path d="M0.416992 0.80143V17.39C0.416992 17.7408 0.700902 18.0247 1.05176 18.0247H12.4775C12.8284 18.0247 13.1123 17.7408 13.1123 17.39V0.80143C13.1123 0.450574 12.8284 0.166664 12.4775 0.166664H1.05176C0.700902 0.166664 0.416992 0.450574 0.416992 0.80143ZM10.5732 14.8086H8.03418C7.68332 14.8086 7.39941 14.5247 7.39941 14.1738C7.39941 13.823 7.68332 13.5391 8.03418 13.5391H10.5732C10.9241 13.5391 11.208 13.823 11.208 14.1738C11.208 14.5247 10.9241 14.8086 10.5732 14.8086ZM2.95605 3.38281H6.76465C7.1155 3.38281 7.39941 3.66672 7.39941 4.01758C7.39941 4.36843 7.1155 4.65234 6.76465 4.65234H2.95605C2.6052 4.65234 2.32129 4.36843 2.32129 4.01758C2.32129 3.66672 2.6052 3.38281 2.95605 3.38281ZM2.95605 5.92187H10.5732C10.9241 5.92187 11.208 6.20578 11.208 6.55664C11.208 6.90749 10.9241 7.1914 10.5732 7.1914H2.95605C2.6052 7.1914 2.32129 6.90749 2.32129 6.55664C2.32129 6.20578 2.6052 5.92187 2.95605 5.92187ZM2.95605 8.46094H10.5732C10.9241 8.46094 11.208 8.74485 11.208 9.0957C11.208 9.44656 10.9241 9.73047 10.5732 9.73047H2.95605C2.6052 9.73047 2.32129 9.44656 2.32129 9.0957C2.32129 8.74485 2.6052 8.46094 2.95605 8.46094ZM2.95605 11H10.5732C10.9241 11 11.208 11.2839 11.208 11.6348C11.208 11.9856 10.9241 12.2695 10.5732 12.2695H2.95605C2.6052 12.2695 2.32129 11.9856 2.32129 11.6348C2.32129 11.2839 2.6052 11 2.95605 11Z" fill="#6A6A6A"/>
<path d="M2.91406 21.8333H14.3398C14.6907 21.8333 14.9746 21.5494 14.9746 21.1986V4.65234C14.9746 4.30149 14.6907 4.01758 14.3398 4.01758H12.4355V17.39C12.4355 18.44 11.5813 19.2943 10.5312 19.2943H2.2793V21.1986C2.2793 21.5494 2.56321 21.8333 2.91406 21.8333Z" fill="#6A6A6A"/>
</svg>
