<svg width="23" height="22" viewBox="0 0 23 22" fill="none" xmlns="http://www.w3.org/2000/svg">
<path d="M21.6003 7.82152C21.1553 7.75687 20.7305 7.59265 20.3577 7.34108C19.9849 7.08951 19.6736 6.75708 19.4471 6.36854C19.2206 5.98001 19.0846 5.54537 19.0494 5.09701C19.0141 4.64864 19.0804 4.19809 19.2434 3.77892C19.3471 3.50488 19.3623 3.20529 19.2871 2.92214C19.2119 2.63899 19.0499 2.38648 18.8239 2.20002C17.8263 1.36226 16.6907 0.704134 15.4678 0.254991C15.1893 0.151548 14.8853 0.138624 14.5991 0.218059C14.3128 0.297494 14.059 0.465236 13.8736 0.697389C13.5947 1.05409 13.2382 1.34259 12.8311 1.54101C12.4241 1.73942 11.9772 1.84253 11.5244 1.84253C11.0715 1.84253 10.6246 1.73942 10.2176 1.54101C9.81054 1.34259 9.45402 1.05409 9.17507 0.697389C8.98973 0.465236 8.73586 0.297494 8.44962 0.218059C8.16338 0.138624 7.85937 0.151548 7.58091 0.254991C6.45178 0.669657 5.39606 1.26188 4.45361 2.00933C4.21605 2.1974 4.04493 2.45658 3.96533 2.74893C3.88572 3.04129 3.9018 3.35145 4.01121 3.634C4.18722 4.06426 4.25994 4.52978 4.22354 4.99323C4.18714 5.45667 4.04263 5.90513 3.80161 6.30264C3.56058 6.70014 3.22975 7.03563 2.83565 7.28218C2.44155 7.52874 1.99515 7.6795 1.53226 7.72237C1.23174 7.7545 0.949477 7.88227 0.727027 8.08687C0.504577 8.29147 0.353696 8.56208 0.296596 8.85887C0.154569 9.5619 0.0830243 10.2774 0.0830243 10.9946C0.0819804 11.595 0.130453 12.1946 0.227948 12.7871C0.27647 13.0934 0.424545 13.3751 0.649279 13.5889C0.874012 13.8026 1.16289 13.9363 1.47124 13.9693C1.9443 14.0137 2.39984 14.1708 2.79973 14.4274C3.19963 14.684 3.53225 15.0326 3.76975 15.4441C4.00725 15.8556 4.14272 16.3181 4.16483 16.7927C4.18693 17.2673 4.09502 17.7403 3.8968 18.1721C3.76708 18.453 3.7349 18.7692 3.80538 19.0704C3.87585 19.3717 4.04494 19.6407 4.28581 19.8349C5.27747 20.6575 6.40213 21.3049 7.61142 21.7494C7.76606 21.803 7.92831 21.8313 8.09196 21.8333C8.31633 21.8329 8.53733 21.7786 8.7364 21.6751C8.93547 21.5715 9.10683 21.4218 9.23609 21.2384C9.50795 20.8423 9.87237 20.5186 10.2977 20.2952C10.7231 20.0719 11.1965 19.9558 11.6769 19.957C12.1424 19.9576 12.6013 20.0668 13.0171 20.276C13.4329 20.4853 13.7941 20.7887 14.072 21.1621C14.2568 21.4106 14.5186 21.5909 14.8166 21.6751C15.1146 21.7592 15.432 21.7425 15.7195 21.6274C16.8253 21.1824 17.8547 20.5673 18.7705 19.8044C19.0006 19.6142 19.1644 19.3559 19.2384 19.0667C19.3124 18.7776 19.2928 18.4723 19.1824 18.195C19.003 17.7703 18.9248 17.3097 18.9539 16.8495C18.983 16.3894 19.1187 15.9423 19.3503 15.5436C19.5818 15.1449 19.9028 14.8055 20.288 14.5522C20.6732 14.2988 21.112 14.1384 21.5698 14.0837C21.8667 14.0427 22.1428 13.9082 22.3581 13.6998C22.5734 13.4913 22.7167 13.2197 22.7674 12.9244C22.8899 12.2882 22.9562 11.6424 22.9657 10.9946C22.9658 10.3113 22.902 9.62944 22.775 8.95803C22.7235 8.66917 22.5823 8.40389 22.3714 8.19987C22.1605 7.99585 21.8907 7.86347 21.6003 7.82152ZM15.3381 10.9946C15.3381 11.7489 15.1145 12.4862 14.6954 13.1134C14.2763 13.7406 13.6807 14.2294 12.9838 14.5181C12.2869 14.8067 11.5201 14.8822 10.7803 14.7351C10.0405 14.5879 9.36097 14.2247 8.82761 13.6913C8.29424 13.158 7.93101 12.4784 7.78386 11.7386C7.6367 10.9988 7.71223 10.232 8.00088 9.53512C8.28954 8.83824 8.77836 8.24261 9.40553 7.82355C10.0327 7.40448 10.7701 7.18081 11.5244 7.18081C12.5358 7.18081 13.5059 7.58262 14.2211 8.29784C14.9363 9.01306 15.3381 9.98311 15.3381 10.9946Z" fill="#6A6A6A"/>
</svg>
