<svg width="18" height="12" viewBox="0 0 18 12" fill="none" xmlns="http://www.w3.org/2000/svg">
<path d="M9 11.6471C3.11161 11.6471 0.192234 6.33251 0.070875 6.10641C-0.023625 5.93039 -0.023625 5.71652 0.070875 5.54051C0.192234 5.31455 3.11161 0 9 0C14.8884 0 17.8078 5.31455 17.9291 5.54065C18.0236 5.71667 18.0236 5.93054 17.9291 6.10655C17.8078 6.33251 14.8884 11.6471 9 11.6471ZM1.22442 5.82266C1.89352 6.87249 4.52053 10.4824 9 10.4824C13.4937 10.4824 16.109 6.8754 16.7756 5.8244C16.1065 4.77457 13.4795 1.16471 9 1.16471C4.50633 1.16471 1.89098 4.77165 1.22442 5.82266ZM9 9.31765C7.13897 9.31765 5.625 7.75025 5.625 5.82353C5.625 3.89682 7.13897 2.32941 9 2.32941C10.861 2.32941 12.375 3.89682 12.375 5.82353C12.375 7.75025 10.861 9.31765 9 9.31765ZM9 3.49412C7.75941 3.49412 6.75 4.53915 6.75 5.82353C6.75 7.10791 7.75941 8.15294 9 8.15294C10.2406 8.15294 11.25 7.10791 11.25 5.82353C11.25 4.53915 10.2406 3.49412 9 3.49412Z" fill="#334257"/>
</svg>
