<svg width="24" height="20" viewBox="0 0 24 20" fill="none" xmlns="http://www.w3.org/2000/svg">
<path d="M14.0661 3.59692C15.1375 4.26868 15.8888 5.40543 16.0256 6.72494C16.4625 6.9291 16.9475 7.0465 17.4616 7.0465C19.3387 7.0465 20.86 5.52515 20.86 3.6484C20.86 1.77135 19.3387 0.25 17.4616 0.25C15.6025 0.250578 14.0944 1.74475 14.0661 3.59692ZM11.8397 10.5551C13.7168 10.5551 15.2381 9.03343 15.2381 7.15668C15.2381 5.27993 13.7165 3.75857 11.8397 3.75857C9.96299 3.75857 8.44077 5.28022 8.44077 7.15697C8.44077 9.03372 9.96299 10.5551 11.8397 10.5551ZM13.2813 10.7867H10.3976C7.99833 10.7867 6.04639 12.7389 6.04639 15.1382V18.6647L6.05536 18.72L6.29827 18.796C8.58796 19.5114 10.5772 19.75 12.2145 19.75C15.4125 19.75 17.2661 18.8382 17.3804 18.7801L17.6074 18.6653H17.6316V15.1382C17.6325 12.7389 15.6806 10.7867 13.2813 10.7867ZM18.9037 7.27842H16.0423C16.0114 8.42327 15.5227 9.45418 14.7497 10.1956C16.8824 10.8298 18.4428 12.8075 18.4428 15.1434V16.2302C21.268 16.1266 22.8961 15.3259 23.0034 15.2721L23.2304 15.157H23.2547V11.6294C23.2547 9.23036 21.3027 7.27842 18.9037 7.27842ZM5.87665 7.04708C6.54146 7.04708 7.16001 6.85304 7.684 6.52251C7.85056 5.43608 8.43296 4.48672 9.26492 3.84012C9.26839 3.7765 9.27446 3.71346 9.27446 3.64926C9.27446 1.77222 7.75282 0.250867 5.87665 0.250867C3.99932 0.250867 2.47825 1.77222 2.47825 3.64926C2.47825 5.52544 3.99932 7.04708 5.87665 7.04708ZM8.92861 10.1956C8.1594 9.45794 7.67243 8.43252 7.63686 7.29461C7.53073 7.28681 7.42576 7.27842 7.31761 7.27842H4.43424C2.03495 7.27842 0.0830078 9.23036 0.0830078 11.6294V15.1564L0.0919723 15.2108L0.33488 15.2874C2.17173 15.8609 3.81106 16.1252 5.23497 16.2085V15.1434C5.23554 12.8075 6.79536 10.8304 8.92861 10.1956Z" fill="#6A6A6A"/>
</svg>
