<svg width="18" height="15" viewBox="0 0 18 15" fill="none" xmlns="http://www.w3.org/2000/svg">
<path d="M17.875 1.68707C17.2177 1.97191 16.5385 2.1691 15.8154 2.25674C16.5604 1.81853 17.13 1.11741 17.3929 0.262921C16.6918 0.679212 15.925 0.964043 15.1143 1.13932C14.457 0.438201 13.5149 0 12.4851 0C10.4913 0 8.89185 1.62134 8.89185 3.59325C8.89185 3.87808 8.91376 4.141 8.97949 4.40392C5.99972 4.27246 3.37051 2.8264 1.5958 0.657302C0.325014 2.93595 1.74917 4.82021 2.6913 5.4556C2.12164 5.4556 1.55198 5.28032 1.06996 5.0174C1.06996 6.79212 2.31883 8.26009 3.94017 8.58874C3.58961 8.69829 2.80085 8.76402 2.31883 8.65447C2.77894 10.0786 4.11545 11.1303 5.67107 11.1522C4.4441 12.1163 2.64748 12.8831 0.346924 12.6421C1.94636 13.6719 3.83062 14.2634 5.86826 14.2634C12.4851 14.2634 16.0783 8.78593 16.0783 4.05336C16.0783 3.89999 16.0783 3.74662 16.0564 3.59325C16.8014 3.0455 17.4149 2.41011 17.875 1.68707Z" fill="white"/>
</svg>
